<svg version="1.2" baseProfile="tiny-ps" xmlns="http://www.w3.org/2000/svg" width="130" height="86"><rect id="backgroundrect" width="100%" height="100%" x="0" y="0" fill="none" stroke="none" style="" class=""/>
	<title>Air-10-svg</title>
	<style>
		tspan { white-space:pre }
		.shp0 { fill: #ffffff } 
	</style>
	
<g class="currentLayer" style=""><title>Layer 1</title><g id="Icon" class="" opacity="1" stroke-width="5" stroke="#ffffff" stroke-opacity="1">
		<g id="Layer" opacity="1" stroke-width="5" stroke="#ffffff" stroke-opacity="1">
			<path id="Layer" class="shp0" d="M127.5,25.10000228881836 C127.5,35.10000228881836 119.30000305175781,43.20000076293945 109.30000305175781,43.20000076293945 L4.200000047683716,43.20000076293945 C3.299999952316284,43.20000076293945 2.5,42.400001525878906 2.5,41.5 C2.5,40.60000228881836 3.299999952316284,39.79999923706055 4.200000047683716,39.79999923706055 L109.30000305175781,39.79999923706055 C117.5,39.79999923706055 124.0999984741211,33.20000076293945 124.0999984741211,25.10000228881836 C124.0999984741211,17 117.4000015258789,10.400001525878906 109.30000305175781,10.400001525878906 C101.0999984741211,10.400001525878906 94.5,17 94.5,25.10000228881836 C94.5,26 93.69999694824219,26.799999237060547 92.80000305175781,26.799999237060547 C91.9000015258789,26.799999237060547 91.0999984741211,26 91.0999984741211,25.10000228881836 C91.0999984741211,15.10000228881836 99.30000305175781,7 109.30000305175781,7 C119.4000015258789,7 127.5,15.10000228881836 127.5,25.10000228881836 z" opacity="1" stroke-width="5" stroke="#ffffff" stroke-opacity="1"/>
			<path id="Layer" class="shp0" d="M110.9000015258789,67.70000076293945 C110.9000015258789,76.60000228881836 103.5999984741211,83.79999923706055 94.69999694824219,83.79999923706055 C85.80000305175781,83.79999923706055 78.5,76.60000228881836 78.5,67.70000076293945 C78.5,66.79999923706055 79.30000305175781,66.00000381469727 80.19999694824219,66.00000381469727 C81.0999984741211,66.00000381469727 81.9000015258789,66.79999923706055 81.9000015258789,67.70000076293945 C81.9000015258789,74.70000076293945 87.69999694824219,80.39999771118164 94.69999694824219,80.39999771118164 C101.80000305175781,80.39999771118164 107.5,74.70000076293945 107.5,67.70000076293945 C107.5,60.70000076293945 101.69999694824219,55.000003814697266 94.69999694824219,55.000003814697266 L20.200000762939453,55.000003814697266 C19.299999237060547,55.000003814697266 18.5,54.20000076293945 18.5,53.29999923706055 C18.5,52.39999771118164 19.299999237060547,51.60000228881836 20.200000762939453,51.60000228881836 L94.69999694824219,51.60000228881836 C103.69999694824219,51.60000228881836 110.9000015258789,58.89999771118164 110.9000015258789,67.70000076293945 z" opacity="1" stroke-width="5" stroke="#ffffff" stroke-opacity="1"/>
			<path id="Layer" class="shp0" d="M30.100000381469727,29.200000762939453 C30.100000381469727,28.299999237060547 30.899999618530273,27.5 31.799999237060547,27.5 L69.5,27.5 C75.4000015258789,27.5 80.30000305175781,22.700000762939453 80.30000305175781,16.700000762939453 C80.30000305175781,10.700000762939453 75.5,5.900001525878906 69.5,5.900001525878906 C63.599998474121094,5.900001525878906 58.70000076293945,10.80000114440918 58.70000076293945,16.700000762939453 C58.70000076293945,17.60000228881836 57.900001525878906,18.400001525878906 57,18.400001525878906 C56.099998474121094,18.400001525878906 55.29999923706055,17.60000228881836 55.29999923706055,16.700000762939453 C55.29999923706055,8.900001525878906 61.70000076293945,2.5 69.5,2.5 C77.30000305175781,2.5 83.69999694824219,8.900001525878906 83.69999694824219,16.700000762939453 C83.69999694824219,24.5 77.30000305175781,30.900001525878906 69.5,30.900001525878906 L31.799999237060547,30.900001525878906 C30.899999618530273,30.900001525878906 30.100000381469727,30.10000228881836 30.100000381469727,29.200000762939453 z" opacity="1" stroke-width="5" stroke="#ffffff" stroke-opacity="1"/>
		</g>
	</g></g></svg>